<svg width="215.000000" height="170.000000" viewBox="0 0 215 170" fill="none" xmlns="http://www.w3.org/2000/svg" xmlns:xlink="http://www.w3.org/1999/xlink">
	<desc>
			Created with Pixso.
	</desc>
	<defs>
		<clipPath id="clip2_11">
			<rect id="logo" width="215.000000" height="170.000000" fill="white" fill-opacity="0"/>
		</clipPath>
	</defs>
	<g clip-path="url(#clip2_11)">
		<rect id="Прямоугольник 3" y="150.000000" width="182.000000" height="20.000000" fill="#FFFFFF" fill-opacity="1.000000"/>
		<path id="Прямоугольник 3" d="M182 170L182 81L157 115L157 170L182 170Z" fill="#FFFFFF" fill-opacity="1.000000" fill-rule="evenodd"/>
		<path id="Прямоугольник 3" d="M25 170L25 0L0 32L0 170L25 170Z" fill="#FFFFFF" fill-opacity="1.000000" fill-rule="evenodd"/>
		<path id="Прямоугольник 4" d="M74 50L113 100.5L151.5 50L182 50L113 142L74 93L74 170L46.5 170L47 50L74 50Z" fill="#FF0000" fill-opacity="1.000000" fill-rule="evenodd"/>
		<path id="Прямоугольник 5" d="M215 47L182 47L182 40C182 40 187.25 35.25 192 30.5C196.75 25.75 201 21 201 21C201 21 202.87 17.5 202 15C201.12 12.5 197.5 11 197.5 11C197.5 11 194.37 10.25 191.5 11C188.62 11.75 186 13 186 13L185 4C185 4 197.25 1.12 205.5 4C213.75 6.87 213 12.5 213 12.5C213 12.5 214.37 22 210 28C205.62 34 197.5 39 197.5 39L215 39L215 47Z" fill="#FF0000" fill-opacity="1.000000" fill-rule="evenodd"/>
		<rect id="Прямоугольник 6" x="41.000000" width="130.000000" height="24.000000" fill="#FFFFFF" fill-opacity="1.000000"/>
	</g>
</svg>
